<?xml version="1.0" encoding="UTF-8" standalone="no"?>
<svg
   xmlns:dc="http://purl.org/dc/elements/1.1/"
   xmlns:cc="http://creativecommons.org/ns#"
   xmlns:rdf="http://www.w3.org/1999/02/22-rdf-syntax-ns#"
   xmlns:svg="http://www.w3.org/2000/svg"
   xmlns="http://www.w3.org/2000/svg"
   xmlns:sodipodi="http://sodipodi.sourceforge.net/DTD/sodipodi-0.dtd"
   xmlns:inkscape="http://www.inkscape.org/namespaces/inkscape"
   version="1.1"
   id="svg2"
   xml:space="preserve"
   width="348"
   height="348"
   viewBox="-15 35 348 348"
   sodipodi:docname="yantra.eps"><metadata
     id="metadata8"><rdf:RDF><cc:Work
         rdf:about=""><dc:format>image/svg+xml</dc:format><dc:type
           rdf:resource="http://purl.org/dc/dcmitype/StillImage" /></cc:Work></rdf:RDF></metadata><defs
     id="defs6" /><sodipodi:namedview
     pagecolor="#ffffff"
     bordercolor="#666666"
     borderopacity="1"
     objecttolerance="10"
     gridtolerance="10"
     guidetolerance="10"
     inkscape:pageopacity="0"
     inkscape:pageshadow="2"
     inkscape:window-width="640"
     inkscape:window-height="480"
     id="namedview4" /><g
     id="g10"
     inkscape:groupmode="layer"
     inkscape:label="ink_ext_XXXXXX"
     transform="matrix(1.3333333,0,0,-1.3333333,0,348)"><g
       id="g12"
       transform="scale(0.09)"><path
         d="m 1310,2153.82 c 34.26,-115.11 139.08,-95.11 203.32,-116.5 37.14,-12.36 55.75,-60.19 49.05,-122.86 28.24,38.32 61.06,56.9 97.05,53.27 77.83,-7.83 111.32,-138.55 249.23,-63.93 -57.17,-105.63 31.09,-165.6 61.4,-226.15 17.51,-35.01 -3.16,-81.97 -52.21,-121.56 47.07,7.12 83.41,-2.95 106.3,-30.96 49.49,-60.57 -19.26,-176.69 131.03,-221.43 -115.12,-34.27 -95.12,-139.09 -116.5,-203.33 -12.37,-37.14 -60.19,-55.74 -122.87,-49.05 38.32,-28.24 56.9,-61.054 53.28,-97.047 -7.84,-77.828 -138.56,-111.324 -63.93,-249.234 -105.64,57.172 -165.61,-31.094 -226.16,-61.394 -35,-17.516 -81.97,3.148 -121.56,52.203 7.13,-47.067 -2.94,-83.41 -30.95,-106.297 -60.57,-49.492 -176.69,19.258 -221.44,-131.031 -34.27,115.121 -139.09,95.113 -203.33,116.503 -37.13,12.364 -55.74,60.192 -49.04,122.872 -28.24,-38.325 -61.061,-56.907 -97.049,-53.282 -77.828,7.836 -111.328,138.555 -249.238,63.93 57.172,105.637 -31.094,165.609 -61.391,226.156 -17.519,35.004 3.149,81.971 52.199,121.561 -47.066,-7.13 -83.41,2.94 -106.296,30.95 -49.493,60.58 19.257,176.69 -131.028,221.44 115.117,34.27 95.113,139.09 116.5,203.33 12.363,37.13 60.192,55.74 122.871,49.04 -38.324,28.24 -56.902,61.06 -53.281,97.05 7.836,77.83 138.559,111.33 63.93,249.24 105.636,-57.17 165.609,31.09 226.156,61.39 35.004,17.52 81.977,-3.15 121.567,-52.2 -7.13,47.06 2.94,83.41 30.95,106.3 60.57,49.49 176.69,-19.26 221.44,131.02 z m 157.1,-49.44 c 7.86,22.91 21.33,37.8 40.23,43.49 46.85,14.09 97.48,-53.41 159.29,22.7 -7.75,-74.7 57.59,-88.22 89.58,-115.96 16.59,-14.36 17.74,-41.63 4.21,-72.06 16.04,18.16 34.17,26.76 53.82,24.78 48.66,-4.9 69.61,-86.64 155.85,-39.97 -35.75,-66.06 19.44,-103.56 38.38,-141.42 9.83,-19.62 0.46,-45.26 -23.69,-68.19 21.77,10.63 41.81,11.64 59.21,2.3 43.09,-23.15 31.16,-106.69 128.68,-96.58 -58.3,-47.34 -21.66,-103.11 -18.64,-145.34 1.56,-21.88 -16.91,-41.98 -47.98,-53.93 24.17,1.5 43.08,-5.24 55.57,-20.53 30.95,-37.88 -12.04,-110.49 81.93,-138.47 -71.98,-21.43 -59.47,-86.97 -72.85,-127.15 -6.92,-20.81 -31.68,-32.31 -64.97,-31.46 22.92,-7.86 37.8,-21.33 43.49,-40.23 14.09,-46.84 -53.41,-97.48 22.71,-159.286 -74.71,7.75 -88.23,-57.59 -115.96,-89.582 -14.37,-16.586 -41.64,-17.742 -72.07,-4.215 18.16,-16.035 26.77,-34.168 24.78,-53.812 -4.89,-48.664 -86.63,-69.613 -39.97,-155.852 -66.05,35.746 -103.56,-19.445 -141.41,-38.386 -19.63,-9.825 -45.26,-0.454 -68.2,23.691 10.64,-21.77 11.65,-41.809 2.3,-59.203 -23.14,-43.09 -106.68,-31.16 -96.57,-128.692 -47.34,58.305 -103.11,21.668 -145.34,18.653 -21.89,-1.563 -41.98,16.902 -53.93,47.98 1.49,-24.179 -5.25,-43.082 -20.54,-55.578 -37.88,-30.945 -110.49,12.043 -138.47,-81.93 -21.43,71.985 -86.97,59.473 -127.14,72.852 -20.82,6.926 -32.32,31.68 -31.46,64.973 -7.87,-22.918 -21.33,-37.801 -40.24,-43.493 -46.84,-14.093 -97.47,53.407 -159.282,-22.71 7.75,74.707 -57.59,88.23 -89.582,115.964 -16.586,14.368 -17.742,41.633 -4.211,72.063 -16.035,-18.156 -34.172,-26.762 -53.816,-24.777 -48.664,4.894 -69.61,86.636 -155.848,39.968 35.742,66.055 -19.449,103.559 -38.391,141.414 -9.824,19.625 -0.453,45.262 23.692,68.196 -21.766,-10.637 -41.809,-11.645 -59.203,-2.301 -43.09,23.148 -31.161,106.687 -128.688,96.578 58.301,47.34 21.664,103.105 18.652,145.335 -1.566,21.89 16.899,41.99 47.977,53.93 -24.18,-1.49 -43.082,5.25 -55.578,20.54 -30.942,37.88 12.043,110.49 -81.93,138.47 71.988,21.43 59.473,86.97 72.852,127.14 6.926,20.82 31.683,32.32 64.972,31.46 -22.914,7.87 -37.8,21.34 -43.492,40.24 -14.094,46.84 53.406,97.47 -22.707,159.28 74.707,-7.75 88.227,57.59 115.961,89.59 14.367,16.58 41.637,17.74 72.063,4.21 -18.157,16.03 -26.758,34.17 -24.778,53.81 4.895,48.67 86.637,69.61 39.969,155.85 66.055,-35.74 103.559,19.45 141.418,38.39 19.625,9.82 45.258,0.45 68.191,-23.69 -10.632,21.77 -11.644,41.81 -2.296,59.2 23.148,43.09 106.683,31.16 96.574,128.69 47.344,-58.3 103.111,-21.66 145.341,-18.65 21.89,1.56 41.98,-16.9 53.93,-47.98 -1.49,24.18 5.24,43.08 20.53,55.58 37.88,30.94 110.49,-12.04 138.47,81.93 21.43,-71.99 86.97,-59.47 127.15,-72.85 20.81,-6.93 32.32,-31.69 31.46,-64.97 z m 190.39,45.37 c -46.58,-57.36 -55.58,-36.34 -114.96,-18.72 -15.29,4.54 -31.38,3.33 -34.51,-15.96 -2.89,-17.96 23.11,-25.58 29.32,-14.41 2.13,3.83 1.97,11.88 -2.71,13.85 -2.69,1.13 -7.03,0.64 -9.02,-5.21 1.93,2.88 8.53,1.28 6.9,-3.93 -3.34,-10.67 -18.3,-3.33 -16.59,7.45 1.97,12.44 13.98,9.27 21.25,5.84 56.3,-26.5 90.52,-27.81 116.65,20.26 -13.49,-56.17 9.34,-74.55 66.65,-96.19 7.52,-2.84 18.3,-8.96 10.91,-19.15 -6.43,-8.83 -22.19,-3.44 -17.01,6.46 2.53,4.84 8.33,1.3 7.67,-2.1 2.72,5.55 0,8.96 -2.71,10.06 -4.7,1.91 -10.5,-3.67 -11.7,-7.87 -3.52,-12.29 20.26,-25.29 30.9,-10.54 11.45,15.85 0.92,28.09 -13.1,35.68 -54.32,29.46 -74.57,21.57 -67.05,94.55 -0.02,-0.13 -0.13,0.91 -0.89,-0.07 z m 296.19,-198.14 c -64.99,-35.17 -65.26,-12.31 -113.38,26.69 -12.39,10.06 -27.72,15.09 -37.99,-1.54 -9.54,-15.47 11.57,-32.48 21.57,-24.53 3.43,2.73 6.37,10.22 2.8,13.83 -2.05,2.08 -6.25,3.3 -10.32,-1.35 2.88,1.91 8.36,-2.08 4.85,-6.28 -7.16,-8.57 -18.17,3.93 -12.46,13.24 6.58,10.74 16.46,3.2 21.86,-2.74 41.87,-46.03 73,-60.33 115.53,-25.93 -33.96,-46.73 -19.9,-72.45 24.77,-114.36 5.86,-5.5 13.48,-15.29 2.73,-21.87 -9.31,-5.7 -21.8,5.31 -13.23,12.47 4.19,3.5 8.19,-1.97 6.28,-4.86 4.64,4.07 3.43,8.27 1.35,10.33 -3.61,3.56 -11.1,0.62 -13.83,-2.81 -7.94,-10 9.06,-31.11 24.53,-21.56 16.64,10.27 11.59,25.59 1.55,37.98 -38.92,48 -60.65,48.47 -25.77,113.02 -0.07,-0.12 0.22,0.87 -0.84,0.27 z m 197.81,-296.41 c -73.51,-7.63 -65,13.62 -94.53,68.05 -7.61,14.03 -19.83,24.55 -35.69,13.11 -14.75,-10.64 -1.74,-34.42 10.54,-30.91 4.21,1.21 9.79,7 7.88,11.71 -1.1,2.7 -4.51,5.43 -10.06,2.7 3.4,0.66 6.94,-5.13 2.09,-7.66 -9.89,-5.18 -15.29,10.58 -6.45,17 10.18,7.41 16.43,-3.34 19.15,-10.9 21.07,-58.55 44.35,-83.67 96.81,-68.16 -49.25,-30.18 -46.11,-59.32 -20.88,-115.14 3.31,-7.32 6.6,-19.29 -5.84,-21.25 -10.79,-1.71 -18.12,13.25 -7.46,16.58 5.22,1.64 6.81,-4.95 3.94,-6.9 5.85,2 6.33,6.34 5.2,9.03 -1.97,4.68 -10.02,4.83 -13.84,2.7 -11.17,-6.2 -3.55,-32.21 14.4,-29.3 19.3,3.12 20.51,19.21 15.97,34.5 -17.58,59.25 -37.47,67.99 19.44,114.27 -0.11,-0.08 0.55,0.73 -0.67,0.57 z m 69.32,-349.54 c -70.83,21.08 -54.85,37.45 -61.29,99.05 -1.65,15.87 -8.93,30.27 -27.95,25.77 -17.7,-4.19 -14.79,-31.14 -2.1,-32.6 4.35,-0.49 11.73,2.72 11.76,7.8 0.02,2.92 -2.09,6.75 -8.25,6.35 3.39,-0.69 4.44,-7.39 -1,-7.88 -11.13,-1 -10.08,15.62 0.53,18.18 12.26,2.94 13.91,-9.38 13.53,-17.4 -2.93,-62.15 8.95,-94.27 63.36,-100.02 -57.05,-9.03 -65.3,-37.16 -63.36,-98.38 0.26,-8.04 -1.27,-20.35 -13.53,-17.4 -10.61,2.54 -11.66,19.17 -0.53,18.17 5.44,-0.49 4.39,-7.19 1,-7.88 6.16,-0.4 8.27,3.43 8.25,6.35 -0.03,5.07 -7.41,8.29 -11.76,7.79 -12.69,-1.45 -15.6,-28.4 2.1,-32.58 19.02,-4.51 26.3,9.9 27.95,25.76 6.43,61.47 -8.61,77.15 61.69,98.14 -0.13,-0.04 0.79,0.46 -0.4,0.78 z m -69.72,-349.461 c -57.36,46.581 -36.34,55.591 -18.71,114.961 4.53,15.29 3.33,31.38 -15.97,34.51 -17.95,2.9 -25.58,-23.11 -14.41,-29.31 3.84,-2.14 11.88,-1.98 13.85,2.7 1.13,2.69 0.65,7.03 -5.2,9.03 2.87,-1.94 1.28,-8.54 -3.94,-6.91 -10.66,3.34 -3.33,18.3 7.45,16.59 12.45,-1.97 9.27,-13.98 5.84,-21.25 -26.49,-56.3 -27.8,-90.516 20.27,-116.653 -56.18,13.488 -74.56,-9.336 -96.19,-66.644 -2.84,-7.524 -8.97,-18.301 -19.15,-10.907 -8.84,6.422 -3.45,22.184 6.45,17.004 4.84,-2.531 1.31,-8.324 -2.09,-7.664 5.55,-2.726 8.96,0 10.06,2.707 1.91,4.7 -3.67,10.496 -7.88,11.703 -12.29,3.512 -25.29,-20.269 -10.54,-30.906 15.85,-11.445 28.09,-0.922 35.68,13.102 29.47,54.324 21.58,74.566 94.56,67.054 -0.13,0.02 0.9,0.125 -0.08,0.883 z M 1952.95,660.012 c -35.17,64.992 -12.3,65.261 26.7,113.375 10.05,12.394 15.09,27.722 -1.54,37.992 -15.48,9.547 -32.48,-11.566 -24.53,-21.566 2.72,-3.43 10.22,-6.372 13.83,-2.801 2.07,2.047 3.29,6.254 -1.35,10.324 1.9,-2.887 -2.09,-8.367 -6.28,-4.859 -8.58,7.164 3.92,18.171 13.23,12.464 10.74,-6.578 3.2,-16.461 -2.74,-21.863 -46.02,-41.871 -60.33,-72.992 -25.92,-115.527 -46.73,33.961 -72.45,19.902 -114.37,-24.766 -5.49,-5.867 -15.29,-13.484 -21.87,-2.738 -5.7,9.312 5.31,21.805 12.47,13.23 3.51,-4.187 -1.97,-8.187 -4.86,-6.277 4.08,-4.637 8.28,-3.426 10.33,-1.352 3.56,3.618 0.63,11.106 -2.8,13.829 -10,7.949 -31.12,-9.051 -21.57,-24.524 10.27,-16.637 25.6,-11.594 37.99,-1.551 48,38.922 48.47,60.645 113.02,25.774 -0.13,0.066 0.87,-0.227 0.26,0.836 z M 1656.54,462.203 c -7.62,73.504 13.62,65 68.06,94.524 14.03,7.613 24.54,19.836 13.11,35.691 -10.64,14.75 -34.43,1.746 -30.91,-10.539 1.2,-4.211 7,-9.793 11.7,-7.879 2.7,1.102 5.43,4.516 2.7,10.063 0.67,-3.403 -5.13,-6.942 -7.66,-2.094 -5.18,9.894 10.59,15.289 17,6.453 7.41,-10.184 -3.33,-16.43 -10.9,-19.152 -58.54,-21.071 -83.67,-44.344 -68.16,-96.813 -30.18,49.258 -59.32,46.117 -115.14,20.883 -7.32,-3.305 -19.28,-6.602 -21.25,5.84 -1.71,10.789 13.25,18.117 16.58,7.457 1.65,-5.215 -4.95,-6.809 -6.89,-3.938 1.99,-5.851 6.33,-6.332 9.02,-5.199 4.68,1.969 4.84,10.016 2.7,13.84 -6.19,11.172 -32.2,3.551 -29.3,-14.402 3.12,-19.297 19.21,-20.504 34.5,-15.969 59.25,17.582 67.99,37.476 114.28,-19.442 -0.09,0.11 0.72,-0.547 0.56,0.676 z M 1307,392.879 c 21.09,70.828 37.45,54.851 99.05,61.289 15.87,1.656 30.27,8.93 25.77,27.957 -4.19,17.695 -31.14,14.785 -32.59,2.09 -0.5,-4.348 2.72,-11.727 7.8,-11.758 2.92,-0.016 6.74,2.094 6.34,8.258 -0.68,-3.391 -7.39,-4.442 -7.87,1 -1,11.129 15.62,10.078 18.17,-0.539 2.95,-12.25 -9.37,-13.906 -17.4,-13.528 -62.14,2.934 -94.27,-8.945 -100.02,-63.355 -9.03,57.051 -37.15,65.301 -98.38,63.355 -8.04,-0.257 -20.34,1.278 -17.4,13.528 2.55,10.617 19.17,11.668 18.17,0.539 -0.48,-5.442 -7.18,-4.391 -7.87,-1 -0.4,-6.164 3.43,-8.274 6.34,-8.258 5.08,0.031 8.3,7.41 7.8,11.758 -1.45,12.695 -28.4,15.605 -32.59,-2.09 -4.5,-19.027 9.9,-26.301 25.77,-27.957 61.46,-6.426 77.14,8.609 98.13,-61.691 -0.04,0.132 0.46,-0.782 0.78,0.402 z m -349.457,69.719 c 46.577,57.363 55.587,36.34 114.957,18.715 15.3,-4.536 31.39,-3.329 34.51,15.968 2.9,17.953 -23.1,25.578 -29.31,14.41 -2.13,-3.836 -1.97,-11.882 2.7,-13.851 2.69,-1.133 7.04,-0.645 9.03,5.203 -1.94,-2.875 -8.53,-1.277 -6.9,3.937 3.34,10.661 18.29,3.329 16.58,-7.453 -1.96,-12.441 -13.97,-9.265 -21.24,-5.836 -56.3,26.493 -90.522,27.805 -116.659,-20.265 13.492,56.172 -9.332,74.554 -66.645,96.187 -7.523,2.836 -18.3,8.965 -10.906,19.153 6.422,8.836 22.188,3.441 17.004,-6.457 -2.531,-4.836 -8.324,-1.305 -7.66,2.097 -2.727,-5.551 0,-8.961 2.707,-10.066 4.699,-1.91 10.496,3.676 11.699,7.883 3.512,12.285 -20.265,25.285 -30.906,10.539 -11.445,-15.852 -0.922,-28.09 13.101,-35.684 54.329,-29.465 74.571,-21.574 67.059,-94.555 0.02,0.129 0.125,-0.902 0.879,0.075 z M 661.359,660.742 c 64.989,35.168 65.262,12.301 113.371,-26.699 12.395,-10.051 27.727,-15.09 37.993,1.543 9.55,15.477 -11.567,32.48 -21.567,24.527 -3.426,-2.722 -6.371,-10.218 -2.801,-13.828 2.047,-2.078 6.258,-3.293 10.329,1.348 -2.891,-1.906 -8.371,2.086 -4.864,6.281 7.164,8.574 18.172,-3.926 12.469,-13.234 -6.582,-10.739 -16.465,-3.203 -21.867,2.734 -41.867,46.031 -72.992,60.336 -115.527,25.926 33.96,46.73 19.902,72.453 -24.762,114.371 -5.867,5.492 -13.485,15.289 -2.738,21.867 9.308,5.699 21.8,-5.308 13.226,-12.469 -4.183,-3.504 -8.187,1.973 -6.273,4.864 -4.641,-4.078 -3.43,-8.282 -1.352,-10.332 3.617,-3.563 11.102,-0.629 13.824,2.804 7.95,10 -9.05,31.118 -24.519,21.563 -16.637,-10.27 -11.598,-25.594 -1.551,-37.985 38.918,-48.003 60.641,-48.468 25.77,-113.019 0.066,0.125 -0.223,-0.871 0.839,-0.262 z M 463.547,957.148 c 73.504,7.622 65,-13.617 94.523,-68.054 7.614,-14.028 19.84,-24.547 35.692,-13.114 14.75,10.645 1.746,34.43 -10.539,30.918 -4.207,-1.21 -9.789,-7.003 -7.875,-11.71 1.097,-2.696 4.511,-5.43 10.062,-2.7 -3.406,-0.664 -6.945,5.129 -2.094,7.66 9.891,5.184 15.286,-10.582 6.454,-17 -10.188,-7.406 -16.434,3.336 -19.157,10.899 -21.07,58.547 -44.343,83.672 -96.808,68.16 49.254,30.184 46.117,59.323 20.883,115.143 -3.305,7.32 -6.606,19.28 5.839,21.25 10.786,1.71 18.114,-13.25 7.453,-16.58 -5.21,-1.64 -6.808,4.95 -3.933,6.89 -5.856,-1.99 -6.336,-6.33 -5.203,-9.02 1.972,-4.68 10.019,-4.84 13.844,-2.7 11.171,6.19 3.546,32.2 -14.403,29.3 -19.301,-3.12 -20.508,-19.21 -15.972,-34.5 17.585,-59.25 37.476,-67.99 -19.438,-114.275 0.105,0.082 -0.551,-0.727 0.672,-0.567 z m -69.324,349.542 c 70.828,-21.08 54.851,-37.45 61.289,-99.05 1.656,-15.87 8.929,-30.27 27.957,-25.77 17.699,4.19 14.785,31.14 2.094,32.59 -4.348,0.5 -11.731,-2.71 -11.758,-7.8 -0.02,-2.91 2.09,-6.74 8.258,-6.34 -3.395,0.68 -4.446,7.39 0.996,7.88 11.129,1 10.082,-15.63 -0.536,-18.18 -12.253,-2.95 -13.91,9.37 -13.531,17.4 2.934,62.15 -8.945,94.27 -63.355,100.02 57.051,9.03 65.304,37.15 63.355,98.38 -0.258,8.04 1.278,20.34 13.531,17.4 10.618,-2.55 11.665,-19.17 0.536,-18.17 -5.442,0.48 -4.391,7.18 -0.996,7.88 -6.168,0.39 -8.278,-3.43 -8.258,-6.35 0.027,-5.08 7.41,-8.3 11.758,-7.79 12.691,1.44 15.605,28.39 -2.094,32.58 -19.028,4.5 -26.301,-9.9 -27.957,-25.76 -6.426,-61.47 8.609,-77.15 -61.692,-98.14 0.133,0.04 -0.781,-0.46 0.403,-0.78 z m 69.718,349.46 c 57.364,-46.58 36.34,-55.59 18.719,-114.96 -4.539,-15.3 -3.332,-31.39 15.965,-34.51 17.953,-2.9 25.578,23.11 14.41,29.31 -3.836,2.14 -11.883,1.97 -13.851,-2.7 -1.133,-2.69 -0.645,-7.04 5.207,-9.03 -2.879,1.94 -1.282,8.53 3.933,6.9 10.664,-3.34 3.332,-18.29 -7.453,-16.59 -12.441,1.97 -9.266,13.98 -5.836,21.25 26.492,56.31 27.805,90.52 -20.265,116.66 56.171,-13.49 74.554,9.33 96.187,66.65 2.84,7.52 8.965,18.3 19.156,10.9 8.832,-6.42 3.442,-22.19 -6.457,-17 -4.84,2.53 -1.308,8.32 2.098,7.66 -5.551,2.72 -8.965,0 -10.066,-2.71 -1.911,-4.7 3.671,-10.5 7.878,-11.7 12.286,-3.51 25.289,20.27 10.539,30.91 -15.851,11.44 -28.089,0.92 -35.683,-13.1 -29.465,-54.33 -21.574,-74.57 -94.555,-67.06 0.133,-0.02 -0.902,-0.13 0.074,-0.88 z m 198.145,296.18 c 35.168,-64.99 12.305,-65.26 -26.699,-113.37 -10.051,-12.39 -15.09,-27.73 1.543,-37.99 15.476,-9.55 32.48,11.57 24.531,21.57 -2.727,3.42 -10.223,6.37 -13.832,2.8 -2.078,-2.05 -3.293,-6.26 1.351,-10.33 -1.91,2.89 2.083,8.37 6.282,4.86 8.57,-7.16 -3.93,-18.17 -13.239,-12.47 -10.738,6.58 -3.203,16.47 2.739,21.87 46.027,41.87 60.332,72.99 25.926,115.53 46.726,-33.96 72.449,-19.91 114.367,24.76 5.496,5.87 15.289,13.48 21.867,2.74 5.699,-9.31 -5.309,-21.8 -12.469,-13.23 -3.5,4.18 1.973,8.19 4.863,6.27 -4.074,4.64 -8.277,3.43 -10.332,1.36 -3.562,-3.62 -0.625,-11.11 2.809,-13.83 9.996,-7.95 31.113,9.05 21.559,24.52 -10.266,16.64 -25.59,11.6 -37.985,1.55 -48,-38.92 -48.469,-60.64 -113.015,-25.77 0.121,-0.06 -0.875,0.22 -0.266,-0.84 z m 296.406,197.81 c 7.625,-73.5 -13.617,-65 -68.054,-94.52 -14.028,-7.61 -24.547,-19.84 -13.11,-35.69 10.645,-14.75 34.426,-1.75 30.914,10.54 -1.211,4.21 -7.004,9.79 -11.711,7.87 -2.695,-1.09 -5.429,-4.51 -2.699,-10.06 -0.664,3.41 5.129,6.95 7.66,2.1 5.184,-9.9 -10.582,-15.29 -17,-6.46 -7.406,10.19 3.336,16.44 10.899,19.16 58.547,21.07 83.675,44.34 68.16,96.81 30.183,-49.26 59.319,-46.12 115.149,-20.89 7.32,3.31 19.28,6.61 21.24,-5.84 1.71,-10.78 -13.24,-18.11 -16.58,-7.45 -1.64,5.21 4.96,6.81 6.9,3.93 -1.99,5.86 -6.34,6.34 -9.03,5.21 -4.68,-1.97 -4.83,-10.02 -2.7,-13.85 6.2,-11.17 32.21,-3.54 29.3,14.41 -3.12,19.3 -19.2,20.5 -34.49,15.97 -59.25,-17.59 -68,-37.48 -114.281,19.44 0.086,-0.11 -0.723,0.54 -0.567,-0.68 z m 349.548,69.33 c -21.09,-70.83 -37.46,-54.85 -99.06,-61.29 -15.87,-1.66 -30.27,-8.93 -25.77,-27.96 4.19,-17.7 31.14,-14.78 32.6,-2.09 0.49,4.35 -2.72,11.73 -7.8,11.76 -2.92,0.02 -6.75,-2.09 -6.35,-8.26 0.69,3.39 7.39,4.44 7.88,-1 1,-11.13 -15.62,-10.08 -18.18,0.54 -2.94,12.25 9.38,13.91 17.41,13.53 62.14,-2.93 94.27,8.94 100.01,63.35 9.04,-57.05 37.16,-65.3 98.38,-63.35 8.04,0.26 20.35,-1.28 17.41,-13.53 -2.55,-10.62 -19.18,-11.67 -18.18,-0.54 0.49,5.44 7.19,4.39 7.88,1 0.4,6.17 -3.43,8.28 -6.34,8.26 -5.08,-0.03 -8.3,-7.41 -7.8,-11.76 1.45,-12.69 28.4,-15.61 32.58,2.09 4.51,19.03 -9.89,26.3 -25.76,27.96 -61.47,6.43 -77.15,-8.61 -98.13,61.69 0.03,-0.13 -0.46,0.78 -0.78,-0.4"
         style="fill:#cc9421;fill-opacity:0.25;fill-rule:evenodd;stroke:none"
         id="path14" /><path
         d="m 1484.19,2190.25 c 1.56,2.07 3.2,4.03 4.92,5.88 8.23,8.9 18.14,15.19 29.67,18.66 20.17,6.06 39.63,0.1 60,-6.14 32.21,-9.86 67.08,-20.54 106.15,27.58 3.01,3.7 8.45,4.26 12.14,1.25 2.35,-1.9 3.43,-4.78 3.14,-7.57 h 0.01 c -5.68,-54.81 30.04,-76.35 61.68,-95.43 11.31,-6.82 22.16,-13.36 31.21,-21.2 10.65,-9.24 16.38,-22.37 17.29,-37.88 0.37,-6.31 -0.08,-13.02 -1.33,-20.04 2.23,1.32 4.48,2.5 6.77,3.56 10.98,5.05 22.52,7.05 34.53,5.85 21.02,-2.12 36.71,-15.07 53.13,-28.62 25.98,-21.44 54.1,-44.64 108.64,-15.13 4.2,2.26 9.44,0.69 11.7,-3.52 1.43,-2.66 1.32,-5.73 -0.01,-8.21 -26.21,-48.46 -1.45,-82.04 20.48,-111.77 7.83,-10.63 15.34,-20.81 20.7,-31.52 6.3,-12.6 6.57,-26.89 1.48,-41.54 l -0.01,-0.03 h 0.01 c -2.08,-5.98 -5.07,-12.03 -8.91,-18.04 2.58,0.36 5.13,0.59 7.67,0.7 12.07,0.46 23.49,-2.11 34.12,-7.81 18.63,-10.01 28.17,-27.97 38.15,-46.77 15.8,-29.75 32.9,-61.94 94.53,-55.56 4.75,0.49 8.99,-2.96 9.47,-7.71 0.32,-3.1 -1.05,-5.99 -3.36,-7.76 -42.52,-34.68 -32.51,-75.12 -23.65,-110.93 3.19,-12.88 6.25,-25.23 7.09,-37.04 1.01,-14.06 -4.22,-27.38 -14.54,-38.98 -4.2,-4.73 -9.27,-9.16 -15.13,-13.24 2.5,-0.65 4.93,-1.4 7.29,-2.27 11.36,-4.2 20.95,-10.95 28.58,-20.29 0.16,-0.19 0.3,-0.38 0.43,-0.57 12.96,-16.24 14.89,-36.29 16.89,-57.26 3.21,-33.52 6.68,-69.79 66.09,-87.48 4.58,-1.37 7.18,-6.18 5.82,-10.76 -0.87,-2.94 -3.17,-5.06 -5.91,-5.85 -52.71,-15.73 -58.94,-56.95 -64.45,-93.45 -1.97,-13.02 -3.86,-25.51 -7.67,-36.93 -4.45,-13.4 -14.38,-23.72 -28.35,-30.48 -5.7,-2.76 -12.09,-4.92 -19.06,-6.45 2.07,-1.56 4.03,-3.2 5.89,-4.91 8.9,-8.24 15.18,-18.14 18.65,-29.68 6.07,-20.17 0.1,-39.63 -6.13,-60 -9.87,-32.21 -20.54,-67.074 27.58,-106.148 3.69,-3.008 4.26,-8.449 1.25,-12.145 -1.9,-2.344 -4.78,-3.429 -7.58,-3.14 v -0.008 c -54.8,5.683 -76.35,-30.039 -95.43,-61.676 -6.82,-11.316 -13.36,-22.16 -21.2,-31.207 -9.23,-10.656 -22.37,-16.387 -37.87,-17.293 -6.31,-0.367 -13.03,0.082 -20.04,1.336 1.31,-2.231 2.5,-4.492 3.56,-6.777 5.05,-10.977 7.05,-22.524 5.84,-34.532 -2.11,-21.019 -15.06,-36.707 -28.61,-53.129 -21.44,-25.98 -44.64,-54.101 -15.13,-108.636 2.26,-4.203 0.68,-9.446 -3.52,-11.707 -2.66,-1.426 -5.74,-1.321 -8.22,0.015 -48.45,26.211 -82.04,1.453 -111.77,-20.48 -10.62,-7.832 -20.8,-15.34 -31.51,-20.699 -12.6,-6.301 -26.9,-6.571 -41.55,-1.485 l -0.02,0.016 -0.01,-0.016 c -5.98,2.078 -12.03,5.071 -18.03,8.91 0.36,-2.574 0.59,-5.132 0.69,-7.668 0.46,-12.066 -2.1,-23.492 -7.81,-34.117 -10,-18.629 -27.97,-28.176 -46.77,-38.156 -29.74,-15.797 -61.94,-32.898 -55.55,-94.527 0.49,-4.746 -2.97,-8.989 -7.71,-9.477 -3.11,-0.312 -6,1.055 -7.76,3.363 -34.69,42.524 -75.12,32.516 -110.93,23.653 -12.89,-3.188 -25.24,-6.25 -37.04,-7.09 -14.07,-1.004 -27.39,4.226 -38.99,14.543 -4.72,4.199 -9.16,9.269 -13.24,15.129 -0.64,-2.5 -1.4,-4.934 -2.27,-7.293 -4.2,-11.356 -10.95,-20.949 -20.29,-28.582 -0.18,-0.153 -0.37,-0.293 -0.56,-0.422 -16.25,-12.961 -36.29,-14.891 -57.27,-16.895 -33.51,-3.207 -69.79,-6.683 -87.48,-66.09 -1.36,-4.578 -6.18,-7.183 -10.75,-5.82 -2.94,0.875 -5.07,3.168 -5.85,5.914 -15.74,52.703 -56.95,58.938 -93.45,64.449 -13.03,1.969 -25.51,3.86 -36.94,7.665 -13.4,4.457 -23.71,14.386 -30.47,28.351 -2.76,5.699 -4.92,12.094 -6.45,19.066 -1.56,-2.07 -3.2,-4.031 -4.92,-5.89 -8.23,-8.899 -18.14,-15.18 -29.67,-18.652 -20.17,-6.067 -39.63,-0.106 -60,6.128 -32.22,9.868 -67.08,20.543 -106.155,-27.578 -3.007,-3.695 -8.449,-4.258 -12.144,-1.25 -2.34,1.899 -3.426,4.782 -3.141,7.575 h -0.004 c 5.68,54.804 -30.043,76.347 -61.679,95.429 -11.313,6.824 -22.16,13.363 -31.203,21.203 -10.661,9.235 -16.391,22.368 -17.297,37.875 -0.364,6.305 0.082,13.024 1.336,20.039 -2.231,-1.316 -4.489,-2.504 -6.778,-3.558 -10.976,-5.051 -22.519,-7.051 -34.527,-5.848 -21.023,2.117 -36.711,15.063 -53.133,28.613 -25.98,21.442 -54.101,44.645 -108.637,15.133 -4.203,-2.258 -9.445,-0.683 -11.707,3.516 -1.425,2.664 -1.316,5.742 0.016,8.215 26.215,48.461 1.453,82.043 -20.48,111.777 -7.832,10.621 -15.34,20.801 -20.696,31.512 -6.304,12.597 -6.57,26.894 -1.488,41.543 l 0.016,0.027 -0.016,0.004 c 2.078,5.984 5.074,12.031 8.91,18.035 -2.574,-0.363 -5.133,-0.59 -7.668,-0.691 -12.066,-0.465 -23.492,2.097 -34.117,7.808 -18.629,10.004 -28.172,27.969 -38.152,46.77 -15.801,29.746 -32.903,61.937 -94.532,55.551 -4.746,-0.485 -8.988,2.968 -9.472,7.714 -0.317,3.106 1.051,5.997 3.363,7.758 42.52,34.692 32.516,75.117 23.648,110.927 -3.187,12.89 -6.25,25.24 -7.089,37.05 -1.004,14.06 4.226,27.38 14.543,38.98 4.199,4.72 9.269,9.16 15.132,13.24 -2.504,0.64 -4.937,1.4 -7.293,2.27 -11.355,4.2 -20.953,10.95 -28.586,20.29 -0.148,0.18 -0.292,0.38 -0.421,0.56 -12.961,16.25 -14.887,36.29 -16.895,57.27 -3.207,33.51 -6.684,69.79 -66.09,87.48 -4.574,1.36 -7.183,6.18 -5.82,10.75 0.875,2.95 3.168,5.07 5.914,5.85 52.703,15.74 58.937,56.95 64.449,93.45 1.973,13.03 3.86,25.52 7.664,36.94 4.457,13.4 14.387,23.71 28.352,30.47 5.699,2.77 12.097,4.92 19.07,6.45 -2.074,1.57 -4.035,3.2 -5.89,4.92 -8.903,8.24 -15.18,18.14 -18.657,29.67 -6.066,20.18 -0.105,39.64 6.133,60 9.863,32.22 20.543,67.08 -27.578,106.16 -3.699,3 -4.262,8.45 -1.254,12.14 1.902,2.34 4.781,3.43 7.578,3.14 v 0.01 c 54.805,-5.68 76.348,30.04 95.426,61.67 6.824,11.32 13.363,22.16 21.203,31.21 9.234,10.66 22.367,16.39 37.875,17.29 6.305,0.37 13.024,-0.08 20.039,-1.33 -1.312,2.23 -2.5,4.49 -3.555,6.78 -5.054,10.97 -7.054,22.52 -5.847,34.52 2.113,21.02 15.062,36.71 28.613,53.14 21.441,25.98 44.641,54.1 15.129,108.63 -2.258,4.21 -0.684,9.45 3.52,11.71 2.66,1.43 5.738,1.32 8.214,-0.02 48.457,-26.21 82.039,-1.45 111.774,20.48 10.621,7.84 20.801,15.34 31.512,20.7 12.609,6.31 26.921,6.57 41.574,1.48 5.984,-2.07 12.031,-5.07 18.039,-8.9 -0.363,2.57 -0.594,5.13 -0.696,7.67 -0.46,12.06 2.102,23.49 7.809,34.11 10.008,18.63 27.969,28.18 46.77,38.16 29.746,15.8 61.937,32.9 55.554,94.53 -0.484,4.74 2.965,8.99 7.711,9.47 3.106,0.32 5.996,-1.05 7.758,-3.36 34.688,-42.52 75.123,-32.52 110.933,-23.65 12.88,3.19 25.24,6.25 37.04,7.08 14.06,1.01 27.39,-4.21 38.98,-14.53 4.73,-4.2 9.16,-9.27 13.24,-15.13 0.65,2.5 1.4,4.93 2.28,7.29 4.2,11.35 10.94,20.95 20.28,28.58 0.19,0.15 0.38,0.29 0.57,0.42 16.24,12.96 36.29,14.89 57.26,16.9 33.52,3.2 69.8,6.68 87.48,66.09 1.37,4.57 6.18,7.18 10.76,5.82 2.94,-0.88 5.06,-3.17 5.85,-5.92 15.73,-52.7 56.95,-58.93 93.45,-64.45 13.03,-1.97 25.51,-3.86 36.94,-7.66 13.39,-4.46 23.71,-14.39 30.47,-28.35 2.76,-5.7 4.92,-12.1 6.45,-19.06 z m 17.57,-5.82 c -6.37,-6.89 -11.5,-16.03 -15.36,-27.26 l -0.02,0.01 c -1.19,-3.47 -4.51,-5.92 -8.37,-5.83 -4.76,0.11 -8.53,4.06 -8.42,8.83 0.43,16.54 -2.17,30.79 -7.41,41.62 -4.73,9.75 -11.62,16.58 -20.32,19.49 -9.71,3.22 -21.65,5.03 -34.1,6.91 -36.3,5.48 -76.67,11.59 -98.92,55.04 -22.64,-49.77 -59.79,-53.34 -94.42,-56.65 -18.32,-1.76 -35.82,-3.43 -48.12,-13.2 l -0.37,-0.32 c -6.91,-5.65 -11.91,-12.75 -15.01,-21.15 -3.28,-8.87 -4.54,-19.29 -3.81,-31.1 h -0.02 c 0.21,-3.65 -1.93,-7.18 -5.53,-8.56 -4.44,-1.7 -9.43,0.53 -11.13,4.97 -5.91,15.4 -13.77,27.56 -22.77,35.56 -8.09,7.2 -17.08,10.87 -26.26,10.21 -10.39,-0.74 -22.01,-3.62 -34.14,-6.61 -35.62,-8.82 -75.26,-18.63 -112.436,13 -1.844,-54.68 -34.801,-72.19 -65.523,-88.51 -16.446,-8.73 -32.16,-17.08 -39.66,-31.04 -4.227,-7.87 -6.129,-16.35 -5.782,-25.33 0.36,-9.37 3.2,-19.45 8.407,-30.11 l -0.012,-0.01 c 1.601,-3.29 0.98,-7.38 -1.816,-10.04 -3.454,-3.29 -8.926,-3.15 -12.211,0.3 -11.403,12.01 -23.313,20.26 -34.645,24.19 -10.234,3.55 -19.949,3.51 -28.18,-0.61 -9.195,-4.6 -18.894,-11.75 -29.007,-19.21 -29.536,-21.78 -62.399,-46.01 -108.844,-31.02 19.195,-51.2 -4.543,-79.98 -26.684,-106.81 -11.844,-14.35 -23.168,-28.07 -24.754,-43.85 -0.894,-8.88 0.598,-17.44 4.356,-25.61 3.929,-8.53 10.336,-16.71 19.082,-24.48 2.894,-2.41 3.972,-6.54 2.359,-10.16 -1.941,-4.34 -7.047,-6.3 -11.402,-4.36 -15.102,6.72 -29.262,9.77 -41.274,9.07 -10.796,-0.63 -19.738,-4.39 -25.761,-11.34 -6.743,-7.78 -12.957,-18.09 -19.442,-28.84 -18.957,-31.43 -40.054,-66.4 -88.722,-70.32 37.332,-39.95 26.421,-75.63 16.238,-108.88 -5.449,-17.78 -10.652,-34.78 -6.063,-50.05 2.579,-8.55 7.215,-15.88 13.782,-21.96 6.886,-6.37 16.023,-11.5 27.257,-15.36 l -0.007,-0.02 c 3.464,-1.19 5.918,-4.51 5.828,-8.37 -0.114,-4.76 -4.067,-8.53 -8.832,-8.42 -16.535,0.43 -30.793,-2.17 -41.617,-7.41 -9.754,-4.72 -16.586,-11.61 -19.489,-20.32 -3.226,-9.7 -5.035,-21.64 -6.918,-34.1 -5.48,-36.29 -11.593,-76.67 -55.039,-98.91 49.77,-22.64 53.34,-59.79 56.653,-94.43 1.757,-18.31 3.437,-35.81 13.187,-48.1 l 0.336,-0.39 c 5.648,-6.91 12.742,-11.9 21.145,-15.01 8.875,-3.28 19.296,-4.53 31.101,-3.81 v -0.02 c 3.652,0.22 7.184,-1.92 8.559,-5.53 1.699,-4.44 -0.528,-9.42 -4.973,-11.12 -15.387,-5.92 -27.555,-13.78 -35.555,-22.77 -7.199,-8.09 -10.871,-17.09 -10.214,-26.27 0.742,-10.39 3.621,-22.01 6.617,-34.13 8.82,-35.63 18.629,-75.264 -13.008,-112.44 54.683,-1.847 72.195,-34.8 88.512,-65.523 8.734,-16.445 17.082,-32.164 31.043,-39.66 7.871,-4.231 16.351,-6.129 25.328,-5.781 9.371,0.359 19.453,3.195 30.113,8.406 l 0.012,-0.016 c 3.289,1.606 7.379,0.985 10.039,-1.812 3.289,-3.457 3.152,-8.926 -0.305,-12.211 -12.004,-11.403 -20.254,-23.313 -24.187,-34.645 l -0.008,0.004 c -3.551,-10.242 -3.504,-19.953 0.613,-28.183 4.602,-9.196 11.754,-18.899 19.211,-29.008 21.785,-29.535 46.012,-62.399 31.02,-108.844 51.199,19.191 79.984,-4.543 106.812,-26.684 14.352,-11.843 28.074,-23.168 43.855,-24.753 8.879,-0.895 17.438,0.597 25.602,4.351 8.531,3.93 16.719,10.336 24.484,19.086 2.411,2.895 6.543,3.969 10.157,2.356 4.347,-1.942 6.304,-7.047 4.363,-11.399 -6.715,-15.101 -9.77,-29.262 -9.07,-41.273 0.632,-10.797 4.386,-19.743 11.336,-25.762 7.785,-6.742 18.093,-12.957 28.843,-19.441 31.434,-18.961 66.403,-40.055 70.321,-88.727 39.953,37.336 75.629,26.426 108.879,16.242 17.78,-5.449 34.78,-10.652 50.05,-6.062 8.56,2.578 15.88,7.214 21.96,13.781 6.37,6.883 11.5,16.023 15.36,27.258 l 0.02,-0.008 c 1.19,3.461 4.51,5.918 8.37,5.828 4.76,-0.117 8.53,-4.07 8.42,-8.832 -0.43,-16.539 2.17,-30.797 7.41,-41.617 4.72,-9.754 11.61,-16.59 20.32,-19.488 9.7,-3.231 21.64,-5.04 34.1,-6.922 36.29,-5.477 76.67,-11.59 98.92,-55.032 22.64,49.766 59.78,53.336 94.42,56.649 18.31,1.754 35.81,3.437 48.1,13.183 l 0.39,0.34 c 6.91,5.649 11.91,12.742 15.01,21.145 3.28,8.875 4.54,19.297 3.81,31.097 h 0.02 c -0.22,3.657 1.93,7.184 5.53,8.563 4.44,1.699 9.43,-0.527 11.13,-4.973 5.91,-15.39 13.77,-27.554 22.76,-35.554 8.09,-7.2 17.09,-10.875 26.27,-10.215 10.39,0.742 22.01,3.617 34.13,6.617 35.63,8.82 75.27,18.625 112.44,-13.012 1.85,54.688 34.8,72.196 65.52,88.512 16.45,8.738 32.17,17.086 39.66,31.047 4.24,7.871 6.13,16.347 5.79,25.328 -0.36,9.371 -3.2,19.453 -8.41,30.113 l 0.01,0.008 c -1.6,3.293 -0.98,7.383 1.82,10.043 3.45,3.285 8.92,3.152 12.21,-0.309 11.4,-12 23.31,-20.25 34.64,-24.183 V 563.5 c 10.24,-3.555 19.95,-3.504 28.18,0.613 9.2,4.602 18.9,11.754 29.01,19.211 29.54,21.785 62.4,46.008 108.84,31.016 -19.19,51.199 4.55,79.988 26.69,106.812 11.84,14.356 23.17,28.075 24.75,43.86 0.9,8.879 -0.6,17.437 -4.35,25.601 -3.93,8.532 -10.34,16.719 -19.09,24.485 -2.89,2.406 -3.96,6.539 -2.35,10.156 1.94,4.348 7.05,6.305 11.4,4.359 15.1,-6.715 29.26,-9.765 41.27,-9.07 10.8,0.637 19.74,4.391 25.76,11.34 6.74,7.785 12.96,18.09 19.44,28.844 18.96,31.433 40.06,66.402 88.73,70.316 -37.34,39.957 -26.43,75.627 -16.24,108.877 5.45,17.79 10.65,34.79 6.06,50.06 -2.58,8.55 -7.21,15.88 -13.78,21.95 -6.88,6.37 -16.02,11.5 -27.26,15.36 l 0.01,0.03 c -3.46,1.18 -5.92,4.51 -5.83,8.36 0.12,4.76 4.07,8.53 8.83,8.43 16.54,-0.43 30.8,2.16 41.62,7.41 9.75,4.72 16.59,11.61 19.49,20.32 3.23,9.7 5.04,21.64 6.92,34.09 5.48,36.3 11.59,76.68 55.03,98.92 -49.76,22.64 -53.33,59.79 -56.65,94.42 -1.75,18.31 -3.43,35.82 -13.18,48.11 l -0.34,0.39 c -5.65,6.91 -12.74,11.9 -21.14,15 -8.88,3.28 -19.3,4.54 -31.1,3.81 v 0.02 c -3.66,-0.21 -7.19,1.93 -8.56,5.53 -1.7,4.44 0.52,9.43 4.97,11.13 15.39,5.92 27.55,13.77 35.55,22.77 7.2,8.09 10.88,17.08 10.22,26.26 -0.74,10.39 -3.62,22.01 -6.62,34.14 -8.82,35.62 -18.62,75.26 13.01,112.44 -54.69,1.84 -72.19,34.8 -88.51,65.52 -8.74,16.45 -17.08,32.16 -31.05,39.66 -7.87,4.23 -16.35,6.13 -25.32,5.78 -9.38,-0.36 -19.46,-3.2 -30.12,-8.4 l -0.01,0.01 c -3.29,-1.6 -7.38,-0.98 -10.04,1.81 -3.28,3.46 -3.15,8.93 0.31,12.21 12,11.4 20.25,23.32 24.18,34.65 h 0.01 c 3.56,10.23 3.51,19.94 -0.61,28.18 -4.6,9.19 -11.76,18.89 -19.21,29.01 -21.79,29.53 -46.01,62.4 -31.02,108.84 -51.2,-19.19 -79.99,4.54 -106.81,26.68 -14.36,11.85 -28.08,23.17 -43.86,24.76 -8.88,0.89 -17.44,-0.6 -25.6,-4.36 -8.53,-3.92 -16.72,-10.33 -24.49,-19.08 -2.4,-2.9 -6.54,-3.97 -10.15,-2.36 -4.35,1.94 -6.31,7.05 -4.37,11.4 6.72,15.11 9.77,29.26 9.08,41.27 -0.64,10.8 -4.39,19.75 -11.34,25.77 -7.79,6.74 -18.09,12.96 -28.85,19.44 -31.43,18.96 -66.4,40.05 -70.32,88.72 -39.95,-37.33 -75.62,-26.42 -108.87,-16.24 -17.79,5.45 -34.79,10.66 -50.06,6.07 -8.55,-2.58 -15.88,-7.22 -21.95,-13.78 z m 522.07,-175.14 c -0.78,-1.43 -1.96,-2.66 -3.51,-3.49 z m 0.01,0.03 -0.01,-0.03 z M 2010.63,589.863 c -1.43,0.778 -2.66,1.961 -3.49,3.508 z m 0.03,-0.015 -0.03,0.015 z M 591.207,603.055 c 0.777,1.433 1.965,2.664 3.508,3.492 z m -0.016,-0.028 0.016,0.028 z m 13.211,1419.453 c 1.43,-0.77 2.661,-1.96 3.493,-3.5 z m -0.031,0.02 0.031,-0.02 z m 471.469,-150.53 c -6.61,43.63 2.72,77.32 28.69,98.54 56.16,45.88 163.8,-17.85 205.28,121.47 31.78,-106.72 128.95,-88.17 188.5,-108 34.42,-11.46 51.67,-55.8 45.47,-113.9 26.18,35.52 56.6,52.74 89.96,49.38 72.15,-7.26 103.21,-128.44 231.05,-59.26 -52.99,-97.93 28.83,-153.52 56.92,-209.65 16.24,-32.46 -2.92,-76 -48.4,-112.7 43.64,6.61 77.33,-2.72 98.55,-28.69 45.87,-56.16 -17.86,-163.8 121.46,-205.28 -106.71,-31.77 -88.17,-128.95 -108,-188.5 -11.46,-34.42 -55.8,-51.67 -113.91,-45.47 35.53,-26.18 52.76,-56.59 49.4,-89.961 -7.26,-72.148 -128.45,-103.207 -59.27,-231.051 -97.92,52.997 -153.52,-28.824 -209.65,-56.914 -32.45,-16.238 -75.99,2.918 -112.69,48.395 6.61,-43.637 -2.73,-77.324 -28.7,-98.543 -56.15,-45.879 -163.8,17.852 -205.28,-121.469 -31.77,106.715 -128.94,88.172 -188.49,108 -34.43,11.461 -51.68,55.801 -45.47,113.91 -26.18,-35.531 -56.6,-52.754 -89.967,-49.394 -72.148,7.262 -103.203,128.445 -231.051,59.265 52.996,97.926 -28.824,153.524 -56.914,209.653 -16.238,32.449 2.918,75.989 48.395,112.699 -43.633,-6.62 -77.325,2.71 -98.543,28.69 -45.879,56.15 17.851,163.8 -121.469,205.28 106.715,31.77 88.172,128.94 108,188.49 11.465,34.43 55.805,51.67 113.91,45.47 -35.527,26.18 -52.75,56.6 -49.394,89.97 7.265,72.15 128.449,103.2 59.265,231.05 97.926,-53 153.524,28.82 209.653,56.91 32.449,16.24 75.995,-2.91 112.695,-48.39 z m 654.73,-142.74 c -108.27,108.27 -257.84,175.23 -423.05,175.23 -165.22,0 -314.79,-66.96 -423.055,-175.23 -108.27,-108.27 -175.238,-257.84 -175.238,-423.06 0,-165.21 66.968,-314.783 175.238,-423.049 C 992.73,774.852 1142.3,707.883 1307.52,707.883 c 165.21,0 314.78,66.969 423.05,175.238 108.27,108.266 175.24,257.839 175.24,423.049 0,165.22 -66.97,314.79 -175.24,423.06 z m 109.91,107.62 c -96.35,-52.14 -96.75,-18.24 -168.08,39.59 -18.38,14.89 -41.1,22.36 -56.32,-2.3 -14.16,-22.94 17.14,-48.14 31.97,-36.36 5.09,4.04 9.45,15.15 4.16,20.5 -3.04,3.08 -9.27,4.88 -15.32,-2 4.28,2.83 12.41,-3.09 7.22,-9.31 -10.62,-12.71 -26.95,5.82 -18.49,19.62 9.76,15.93 24.4,4.76 32.42,-4.06 62.07,-68.23 108.2,-89.44 171.26,-38.43 -50.34,-69.28 -29.5,-107.41 36.72,-169.55 8.69,-8.16 19.99,-22.67 4.07,-32.42 -13.81,-8.46 -32.34,7.87 -19.63,18.48 6.22,5.19 12.15,-2.93 9.31,-7.21 6.88,6.05 5.08,12.28 2.01,15.31 -5.36,5.29 -16.47,0.93 -20.51,-4.15 -11.78,-14.83 13.43,-46.13 36.36,-31.97 24.66,15.22 17.19,37.95 2.3,56.32 -57.7,71.16 -89.9,71.85 -38.21,167.54 -0.09,-0.17 0.34,1.31 -1.24,0.4 z m 219.15,-532.29 c -105,31.25 -81.32,55.52 -90.86,146.84 -2.47,23.52 -13.25,44.87 -41.45,38.2 -26.23,-6.21 -21.93,-46.16 -3.11,-48.31 6.45,-0.75 17.39,4.03 17.44,11.56 0.03,4.32 -3.1,10 -12.25,9.4 5.03,-1.02 6.59,-10.95 -1.48,-11.68 -16.49,-1.48 -14.94,23.17 0.81,26.95 18.15,4.36 20.61,-13.89 20.05,-25.8 -4.36,-92.14 13.26,-139.76 93.93,-148.28 -84.59,-13.39 -96.82,-55.08 -93.93,-145.85 0.38,-11.91 -1.9,-30.16 -20.05,-25.8 -15.75,3.78 -17.3,28.43 -0.81,26.95 8.07,-0.72 6.51,-10.66 1.48,-11.68 9.15,-0.6 12.28,5.08 12.25,9.41 -0.05,7.52 -10.99,12.3 -17.44,11.56 -18.82,-2.16 -23.12,-42.11 3.11,-48.32 28.2,-6.67 38.98,14.68 41.45,38.2 9.52,91.12 -12.77,114.37 91.45,145.49 -0.19,-0.06 1.16,0.68 -0.59,1.16 z M 1838.2,773.211 c -52.15,96.348 -18.24,96.754 39.58,168.082 14.9,18.371 22.36,41.094 -2.3,56.316 -22.93,14.161 -48.14,-17.14 -36.35,-31.968 4.03,-5.086 15.14,-9.446 20.5,-4.157 3.08,3.039 4.88,9.27 -2.01,15.313 2.84,-4.277 -3.08,-12.406 -9.3,-7.211 -12.71,10.617 5.81,26.941 19.62,18.488 15.92,-9.758 4.75,-24.402 -4.06,-32.422 -68.24,-62.074 -89.45,-108.203 -38.43,-171.265 -69.29,50.34 -107.42,29.508 -169.56,-36.723 -8.15,-8.687 -22.67,-19.984 -32.42,-4.059 -8.45,13.805 7.87,32.333 18.49,19.622 5.19,-6.215 -2.93,-12.141 -7.22,-9.301 6.05,-6.887 12.28,-5.086 15.32,-2.012 5.29,5.359 0.92,16.469 -4.16,20.504 -14.83,11.781 -46.13,-13.422 -31.97,-36.359 15.23,-24.661 37.95,-17.192 56.32,-2.297 71.17,57.695 71.85,89.902 167.55,38.207 -0.18,0.097 1.3,-0.34 0.4,1.242 z M 1305.9,554.066 c 31.26,105 55.52,81.309 146.85,90.86 23.52,2.461 44.86,13.246 38.2,41.445 -6.21,26.234 -46.17,21.926 -48.32,3.106 -0.74,-6.45 4.03,-17.387 11.56,-17.434 4.32,-0.027 10,3.102 9.41,12.25 -1.03,-5.035 -10.96,-6.594 -11.68,1.477 -1.48,16.492 23.16,14.937 26.94,-0.805 4.37,-18.152 -13.89,-20.613 -25.79,-20.055 -92.14,4.36 -139.76,-13.262 -148.28,-93.93 -13.4,84.59 -55.09,96.821 -145.86,93.93 -11.91,-0.375 -30.16,1.903 -25.8,20.055 3.79,15.742 28.43,17.297 26.95,0.805 -0.72,-8.071 -10.65,-6.512 -11.68,-1.477 -0.59,-9.148 5.09,-12.277 9.41,-12.25 7.53,0.047 12.3,10.984 11.56,17.434 -2.15,18.82 -42.11,23.128 -48.32,-3.106 -6.67,-28.199 14.68,-38.984 38.2,-41.445 91.13,-9.528 114.38,12.762 145.49,-91.457 -0.05,0.195 0.69,-1.164 1.16,0.597 z m -531.345,221.43 c 96.347,52.145 96.754,18.238 168.082,-39.586 18.375,-14.894 41.093,-22.363 56.32,2.297 14.163,22.938 -17.144,48.145 -31.969,36.359 -5.086,-4.039 -9.445,-15.144 -4.156,-20.503 3.039,-3.079 9.266,-4.879 15.313,2.007 -4.282,-2.836 -12.407,3.086 -7.215,9.305 10.617,12.711 26.941,-5.816 18.488,-19.621 -9.754,-15.926 -24.402,-4.754 -32.422,4.062 -62.07,68.231 -108.203,89.446 -171.266,38.43 50.34,69.281 29.508,107.414 -36.718,169.551 -8.688,8.156 -19.985,22.668 -4.059,32.422 13.805,8.457 32.328,-7.867 19.621,-18.485 -6.219,-5.195 -12.14,2.93 -9.308,7.215 -6.883,-6.051 -5.082,-12.277 -2.008,-15.316 5.355,-5.289 16.469,-0.93 20.504,4.156 11.781,14.828 -13.422,46.131 -36.36,31.969 -24.656,-15.223 -17.187,-37.945 -2.297,-56.32 57.696,-71.168 89.903,-71.852 38.204,-167.543 0.101,0.175 -0.336,-1.305 1.246,-0.399 z M 555.41,1307.79 c 105,-31.25 81.313,-55.52 90.863,-146.84 2.461,-23.52 13.243,-44.87 41.446,-38.2 26.23,6.2 21.922,46.16 3.101,48.31 -6.449,0.74 -17.386,-4.03 -17.433,-11.56 -0.028,-4.32 3.101,-10 12.25,-9.41 -5.035,1.03 -6.594,10.96 1.472,11.68 16.5,1.48 14.942,-23.16 -0.796,-26.94 -18.157,-4.37 -20.618,13.89 -20.059,25.8 4.359,92.14 -13.262,139.75 -93.926,148.27 84.59,13.4 96.82,55.09 93.926,145.86 -0.375,11.91 1.902,30.16 20.059,25.8 15.738,-3.79 17.296,-28.43 0.796,-26.95 -8.066,0.72 -6.507,10.66 -1.472,11.68 -9.149,0.59 -12.278,-5.09 -12.25,-9.41 0.047,-7.52 10.984,-12.3 17.433,-11.56 18.821,2.15 23.129,42.11 -3.101,48.32 -28.203,6.66 -38.985,-14.68 -41.446,-38.2 -9.531,-91.12 12.758,-114.38 -91.46,-145.49 0.195,0.05 -1.165,-0.68 0.597,-1.16 z m 221.43,531.35 c 52.144,-96.35 18.238,-96.76 -39.586,-168.09 -14.895,-18.37 -22.359,-41.09 2.297,-56.32 22.937,-14.16 48.14,17.15 36.359,31.97 -4.039,5.09 -15.144,9.45 -20.5,4.16 -3.082,-3.04 -4.879,-9.27 2.004,-15.31 -2.836,4.28 3.09,12.4 9.301,7.21 12.715,-10.62 -5.813,-26.94 -19.617,-18.49 -15.922,9.76 -4.754,24.41 4.062,32.43 68.231,62.07 89.445,108.2 38.43,171.26 69.281,-50.34 107.414,-29.51 169.555,36.72 8.152,8.69 22.668,19.98 32.421,4.06 8.454,-13.81 -7.871,-32.33 -18.488,-19.62 -5.191,6.22 2.93,12.14 7.215,9.3 -6.051,6.89 -12.277,5.09 -15.313,2.01 -5.289,-5.36 -0.929,-16.47 4.153,-20.5 14.828,-11.78 46.127,13.42 31.967,36.36 -15.221,24.66 -37.944,17.19 -56.319,2.3 -71.164,-57.7 -71.847,-89.91 -167.543,-38.21 0.176,-0.1 -1.304,0.33 -0.398,-1.24 z m 532.29,219.14 c -31.25,-105 -55.52,-81.31 -146.84,-90.86 -23.52,-2.46 -44.87,-13.24 -38.2,-41.45 6.21,-26.23 46.16,-21.92 48.32,-3.1 0.74,6.45 -4.03,17.39 -11.57,17.43 -4.32,0.03 -10,-3.1 -9.4,-12.25 1.02,5.04 10.95,6.6 11.68,-1.47 1.48,-16.5 -23.17,-14.94 -26.95,0.8 -4.36,18.16 13.9,20.62 25.8,20.06 92.14,-4.36 139.76,13.26 148.28,93.92 13.39,-84.59 55.09,-96.82 145.86,-93.92 11.91,0.37 30.16,-1.9 25.79,-20.06 -3.78,-15.74 -28.43,-17.3 -26.95,-0.8 0.73,8.07 10.66,6.51 11.68,1.47 0.6,9.15 -5.08,12.28 -9.41,12.25 -7.52,-0.04 -12.29,-10.98 -11.56,-17.43 2.16,-18.82 42.11,-23.13 48.32,3.1 6.67,28.21 -14.68,38.99 -38.19,41.45 -91.13,9.53 -114.38,-12.76 -145.5,91.46 0.06,-0.2 -0.68,1.16 -1.16,-0.6"
         style="fill:#cc9421;fill-opacity:0.25;fill-rule:nonzero;stroke:none"
         id="path16" /><path
         d="m 1869.14,1461.18 -114.67,-151.31 114.65,-149.39 2.31,-3.01 -0.31,-0.62 4.67,-6.08 h -7.67 l -0.31,-0.62 H 1864 l -210.22,-0.02 68.2,-115.32 1.82,-3.08 -0.35,-0.62 3.18,-5.38 h -6.27 l -0.36,-0.62 h -3.57 l -168.95,-0.03 77.68,-146.404 1.63,-3.059 -0.38,-0.621 2.72,-5.125 h -5.81 l -0.38,-0.625 h -3.47 l -198.94,-0.027 -111.01,-146.477 -1.85,-2.445 h -0.78 l -2.52,-3.328 -2.5,3.328 h -0.78 l -1.85,2.469 -109.72,146.422 -194.368,-0.028 h -3.48 l -0.371,0.621 h -5.832 l 2.75,5.172 -0.375,0.625 1.613,3.035 77.793,146.407 -169.121,-0.02 h -3.563 l -0.355,0.62 h -6.262 l 3.176,5.38 -0.355,0.63 1.816,3.07 68.074,115.36 -209.719,-0.02 h -3.808 l -0.313,0.62 h -7.566 l 4.57,6.02 -0.308,0.62 2.308,3.05 113.461,149.52 -113.484,151.45 -2.27,3.02 0.313,0.62 -4.508,6.02 h 7.519 l 0.313,0.62 h 3.773 l 215.497,-0.02 -58.215,103.87 -1.715,3.05 0.367,0.63 -2.961,5.28 h 6.059 l 0.367,0.62 h 3.504 l 140.506,-0.02 -97.459,138.8 -2.141,3.05 0.328,0.62 -4.105,5.84 h 7.156 l 0.324,0.63 h 3.707 l 218.91,-0.03 118.2,155.77 1.83,2.41 h 0.78 l 2.49,3.28 2.5,-3.26 0.78,0.01 1.85,-2.42 119.58,-155.82 225.02,-0.02 h 3.73 l 0.33,-0.62 h 7.14 l -4.12,-5.86 0.32,-0.62 -2.13,-3.03 -97.68,-138.79 139.04,-0.02 h 3.5 l 0.36,-0.63 h 6.07 l -2.96,-5.28 0.36,-0.63 -1.71,-3.04 -58.33,-103.84 215.98,-0.02 h 3.81 l 0.31,-0.62 h 7.58 l -4.57,-6.04 0.31,-0.62 z m -122.73,-161.95 -101.56,-134.01 1.32,-2.24 204.78,0.02 z m -113.02,-149.13 -85,-112.16 156.76,0.02 -66.32,112.14 z m -98.12,-129.47 -105,-138.556 178.5,0.028 z M 1179.89,882.039 1078.08,1017.9 1005.87,882.016 Z m -116.78,155.841 -84.051,112.16 h -3.461 l -66.2,-112.18 z m -94.352,125.91 -101.461,135.39 -103.414,-136.29 204.363,0.02 z m 12.449,307.79 h 0.785 l 76.318,100.58 -133.482,0.01 z m 16.91,-0.01 135.893,-0.01 -65.31,93.03 z m 151.613,0.02 h 0.66 l 59.34,100.55 -130.61,0.01 z m 15.6,-0.03 72.78,-0.01 57.67,100.57 -71.1,0.01 z m 87.64,-0.01 c 36.81,0 73.19,-0.01 110.06,-0.01 l -55.09,95.87 z m 124.89,-0.01 70.86,-0.01 -59.49,100.58 -69.18,0.01 z m 85.81,0.01 h 2.47 l 70.75,100.54 -132.69,0.02 z m 18.2,-0.02 132.33,-0.01 -69.03,89.95 z m 148.54,0.01 h 2.84 l 56.48,100.53 -136.48,0.02 z m -326.01,-734.224 99.96,131.899 c -14.65,0 -97.02,-4.652 -99.62,-0.012 l -99.16,-0.012 z m 109.71,144.758 108.37,143.006 -125.23,-0.02 -80.33,-143.001 z m -117.29,-0.019 -80.12,142.985 -127.9,-0.02 107.15,-142.973 z m 229.27,155.885 -59.07,111.34 -62.55,-111.36 z m 11.1,6.55 80.05,105.63 -136.1,-0.01 z m 89.79,118.49 2.38,3.13 -78.41,132.58 c -27.88,-49.63 -48.39,-86.14 -76.24,-135.73 z m 10.78,14.22 100.52,132.63 -104.55,136.24 -75.49,-134.4 z m 108.58,143.27 104.71,138.17 -210.25,0.02 -0.21,-0.39 z m -122.27,138.19 -151.25,0.02 -0.83,-1.19 c 6.53,-11.05 44.33,-66.27 41.82,-70.72 l 36.85,-62.29 74.54,132.71 z m -167.75,0.02 h -71.08 l 32.3,-56.18 39.12,55.6 z m -85.9,0 -52.99,0.01 35.76,-67.4 56.02,-0.09 z m -72.72,0.01 -52.1,0.01 -38.51,-67.18 54.87,-0.08 z m -66.96,0.01 -71.96,0.01 39.61,-56.42 z m -87.95,0.01 -154.376,0.01 75.206,-134.18 c 27.61,46.79 51.46,87.2 79.17,134.17 z m -170.552,0.02 -208.449,0.02 103.578,-138.23 z m -96.859,-148.9 100.457,-134.05 80.204,135.92 -76.145,135.86 z m 108.824,-145.22 1.27,-1.69 153.937,0.01 c -25.38,45.3 -50.68,90.45 -76.09,135.77 z m 10.902,-14.55 81.095,-108.21 57.51,108.23 z m 532.045,434.89 -104.44,136.09 -106.6,0.01 80.48,-136.09 z m -229.55,136.1 -110.17,0.02 -103.24,-136.07 133.12,-0.01 z m 115.25,12.84 -108.45,141.32 -107.22,-141.29 108.73,-0.01 0.94,1.58 0.93,-1.58 z m -257.71,-570.96 71.99,0.01 -36.25,64.66 h -1.37 z m 86.75,0.01 54.34,0.01 -51.23,64.66 h -39.35 z m 77.89,0.01 54.01,0.01 36.39,64.67 h -39.05 z m 68.79,0.01 h 71.18 l -34.29,64.65 h -0.51 z m 50.37,558.08 104.42,-136.07 h 2.6 l 95.74,136.05 z m 13.77,-570.93 -71.37,-0.01 -63.14,-112.19 71.49,0.01 z m -155.49,-112.2 -62.89,112.18 -72.94,-0.01 62.87,-112.19 z m 69.33,112.19 -57.77,-0.01 -0.8,-0.99 -0.78,0.99 h -58.1 l 58.61,-104.54 z m -135.09,-125.06 75.41,-134.552 75.59,134.572 c -50.42,-0.01 -100.51,-0.01 -151,-0.02 z m -83.98,123.48 -58.79,-110.64 120.8,0.01 z m -78.36,437.87 102.19,134.68 -196.771,0.02 z m 163.15,-1.41 c 62.1,0 87.65,0 149.36,-0.01 l -74.77,126.42 z m 235.06,-408.83 28.93,51.49 -56.24,-0.01 z m 39.69,70.65 36.35,64.71 -36.49,61.68 -35.87,-63.74 z m -10.7,144.26 -32.46,54.87 -38.54,-54.76 z m -425.42,-79.52 37.3,-66.55 36.87,64.31 -36.77,65.61 z m 47.05,-83.95 29.23,-52.16 27.72,52.17 z m 0.24,164.08 72.01,-0.12 -39.17,55.77 z m 299.85,-150.08 -14.35,27.05 -22.36,-28.16 36.08,0.01 z m -20.94,39.47 -21.19,39.92 -56.65,-80.51 45.63,0.01 z m -100.82,-40.59 -56.89,81.01 -21.02,-39.55 32.84,-41.47 z m 70.01,98.66 -20.86,39.32 -75.71,0.12 -20.95,-39.43 z m -27.69,52.18 -31.03,58.48 -31.02,-58.38 z m -126.81,-121.77 -14.43,-27.15 1.08,-1.93 h 36.38 z m 148.22,108.88 17.45,-32.87 23.09,32.81 z m 28.68,-39.29 50.45,-0.01 -22.54,39.21 h -0.32 z m 59.06,-14.99 -35.33,-44.5 13.12,-24.72 30.67,54.5 z m -60.07,2.13 18.15,-34.21 27.16,34.21 z m 75.86,-3.82 31.38,55.75 -63.49,0.1 c 12.48,-21.7 21.6,-37.56 32.11,-55.85 z m -30.83,-81.06 0.49,-0.9 62.62,0.01 -32.14,55.92 z m -250.98,-0.93 0.95,1.77 -30.26,53.97 -31.96,-55.75 z m 8.13,15.3 13.19,24.82 -34.56,43.63 -8.6,-14.99 z m -12.81,83.38 H 1227 l -27.5,39.16 z m 32.58,-46.18 17.71,33.33 h -44.11 z m -24.75,85.75 -64,0.1 31.67,-56.48 c 10.72,18.69 21.43,37.37 32.33,56.38 z m 52.98,-32.62 17.27,32.5 -40.14,0.07 z m 69.91,-99.56 56.12,79.74 -112.13,0.02 z m -46.38,-18.92 46.59,-58.81 46.7,58.83 c -31.14,-0.01 -62.11,-0.01 -93.29,-0.02 z m 34.88,83.08 v 0.38 l 1.8,1.81 c 1.35,1.35 2.96,2.45 4.74,3.19 h 0.03 c 1.74,0.72 3.63,1.12 5.57,1.12 1.95,0 3.83,-0.4 5.58,-1.12 h 0.02 c 1.78,-0.74 3.38,-1.82 4.73,-3.17 l 4.36,-4.35 -0.96,-0.96 c 0.59,-1.59 0.91,-3.29 0.91,-5.04 0,-1.94 -0.4,-3.83 -1.12,-5.58 -0.76,-1.83 -1.84,-3.45 -3.16,-4.77 h -0.03 c -1.33,-1.34 -2.95,-2.42 -4.75,-3.16 -1.75,-0.73 -3.63,-1.13 -5.58,-1.13 -1.94,0 -3.82,0.4 -5.57,1.13 -1.83,0.75 -3.45,1.84 -4.77,3.16 v 0.01 c -1.35,1.36 -2.44,2.97 -3.17,4.74 v 0.02 c -0.73,1.75 -1.13,3.64 -1.13,5.58 0,1.96 0.4,3.85 1.13,5.6 0.37,0.89 0.83,1.74 1.37,2.54"
         style="fill:#cc9421;fill-opacity:0.25;fill-rule:evenodd;stroke:none"
         id="path18" /><path
         d="m 282.699,2347.75 h 881.851 l 0.38,52.28 H 692.313 v 14.17 20.21 139.19 20.2 14.18 h 14.171 20.207 1165.239 20.21 14.17 v -14.18 -20.2 -140.93 -20.2 -14.18 h -14.17 -20.21 -433.62 v -53.14 h 876.34 14.17 v -14.17 -5.5 h 0.27 v -14.17 -862.17 l 52.28,-0.37 v 438.23 20.21 14.17 h 14.17 20.21 139.19 20.21 14.17 V 1907.21 1887 721.762 701.555 687.383 h -14.17 -20.21 -140.92 -20.21 -14.17 v 14.172 20.207 433.618 H 2346.5 V 278.336 264.164 h -14.18 -40.41 -14.17 v 0.438 h -827.26 l -0.37,-52.278 h 438.23 20.21 14.17 V 198.148 177.945 38.7539 18.5469 4.375 H 1908.55 1888.34 723.102 V 4.42969 L 702.895,4.42578 H 688.723 V 18.543 38.7539 179.676 v 20.207 14.172 h 14.172 20.207 433.618 v 53.261 l -876.193,-0.421 -14.175,-0.008 v 14.125 5.851 h -0.407 v 14.172 862.175 l -52.281,0.37 V 725.348 705.141 690.969 H 199.492 179.285 40.0977 19.8867 5.71484 v 14.172 20.207 1165.242 20.2 14.18 h 14.17186 20.211 140.9223 20.207 14.171 v -14.18 -20.2 -433.62 h 53.141 v 822.02 h -0.012 v 14.17 40.42 14.17 z M 1178.57,2319.4 H 296.875 v -12.06 h 0.008 v -14.18 -850.37 -14.17 h -14.172 -81.484 -14.172 v 14.17 447.8 6.03 H 181.02 40.0977 34.0625 v -6.03 -1165.242 -6.035 h 6.0352 139.1873 6.035 v 6.035 452.452 14.21 l 14.227,-0.1 80.629,-0.57 14.117,-0.1 v -14.01 -862.019 h 0.406 v -14.176 -5.902 l 876.201,0.422 14.17,0.004 V 281.438 199.883 185.707 H 1170.9 723.102 717.07 V 179.676 38.7539 32.6641 h 6.032 v 0.0547 h 1165.238 6.04 v 6.0351 139.1911 6.032 h -6.04 -452.45 -14.21 l 0.1,14.23 0.57,80.621 0.1,14.117 h 14.02 855.44 14.18 v -0.437 h 12.06 v 877.042 14.18 h 14.17 81.49 14.17 v -14.18 -447.788 -6.035 h 6.04 140.92 6.03 v 6.035 1165.238 6.04 h -6.03 -139.19 -6.03 v -6.04 -452.45 -14.22 l -14.23,0.1 -80.63,0.58 -14.11,0.1 v 14.02 862.01 h -0.27 v 14.17 5.49 h -876.34 -14.18 v 14.18 81.49 14.17 h 14.18 447.79 6.03 v 6.03 140.93 6.03 h -6.03 -1165.239 -6.031 v -6.03 -139.19 -6.04 h 6.031 452.449 14.22 l -0.1,-14.23 -0.58,-80.62 -0.09,-14.12 z m 1101.77,-43.01 h -890.79 v 190.66 h 468 v 72.17 H 761.07 v -70.43 h 438.34 20.27 14.22 l -0.1,-14.24 -0.14,-20.28 -0.87,-121.04 -0.14,-20.12 -0.1,-14.12 h -14.02 -19.98 -861.253 v -856.4 -20.21 -14.17 H 323.121 302.918 181.02 160.813 146.695 v 14.17 l 0.004,20.21 h -0.054 v 433.62 H 74.4766 V 759.723 h 70.4294 v 438.347 20.27 14.21 l 14.231,-0.09 20.285,-0.15 121.039,-0.86 20.125,-0.14 14.117,-0.1 v -14.02 -19.98 -861.804 l 856.397,0.41 20.21,0.008 14.17,0.008 V 321.711 301.574 179.676 159.473 145.297 H 1211.31 1191.1 757.48 V 73.1289 h 1096.49 v 70.4371 h -438.35 -20.27 -14.21 l 0.09,14.231 0.15,20.285 0.86,121.035 0.14,20.125 0.1,14.117 h 14.02 19.98 861.26 v 856.401 20.2 14.18 h 14.17 20.21 121.9 20.2 14.17 v -14.18 -20.2 -433.623 h 72.17 V 1852.63 h -70.43 v -438.35 -20.27 -14.22 l -14.23,0.1 -20.29,0.15 -121.03,0.86 -20.13,0.14 -14.11,0.1 v 14.02 19.98 z m -856.41,28.35 h 884.75 v -895.57 l 6.01,-0.04 121.04,-0.86 6.05,-0.04 v 6.05 452.52 14.17 h 14.17 98.78 14.18 V 1866.8 741.965 727.793 h -14.18 -100.51 -14.17 v 14.172 447.795 6.03 h -6.03 -121.9 -6.03 v -6.03 -870.572 -14.176 h -14.18 -875.43 -5.96 l -0.04,-6.008 -0.87,-121.035 -0.04,-6.055 h 6.05 452.52 14.17 V 157.738 58.957 44.7852 H 1868.14 743.309 729.133 v 14.1718 100.516 14.172 h 14.176 447.791 6.03 v 6.031 121.898 6.012 l -6.03,-0.004 -870.573,-0.414 -14.172,-0.008 v 14.125 875.925 5.97 l -6.007,0.04 -121.039,0.86 -6.055,0.04 v -6.05 -452.519 -14.172 H 159.082 60.3008 46.1289 v 14.172 1124.829 14.18 h 14.1719 100.5152 14.172 v -14.18 -447.79 h -0.054 v -6.03 h 6.086 121.898 6.031 v 6.03 870.57 14.18 h 14.172 875.429 5.97 l 0.04,6 0.86,121.04 0.04,6.06 h -6.05 -452.515 -14.172 v 14.17 98.78 14.18 h 14.172 1124.835 14.17 v -14.18 -100.51 -14.17 h -14.17 -447.8 -6.03 v -6.04 -121.9 -6.03 h 6.03"
         style="fill:#cc9421;fill-opacity:0.25;fill-rule:nonzero;stroke:none"
         id="path20" /></g></g></svg>
